<?xml version="1.0" encoding="UTF-8"?>
<svg id="Layer_1" xmlns="http://www.w3.org/2000/svg" viewBox="0 0 193.44 196.41">
  <defs>
    <style>
      .cls-1 {
        fill: #ed1c24;
      }

      .cls-1, .cls-2, .cls-3, .cls-4, .cls-5, .cls-6, .cls-7 {
        stroke: #231f20;
        stroke-miterlimit: 10;
      }

      .cls-8, .cls-3, .cls-6, .cls-7 {
        fill: none;
      }

      .cls-2 {
        fill: #27aae1;
      }

      .cls-3 {
        stroke-width: 3px;
      }

      .cls-4 {
        fill: #231f20;
      }

      .cls-5 {
        fill: #8dc63f;
      }

      .cls-6 {
        stroke-width: .75px;
      }
    </style>
  </defs>
  <path class="cls-5" d="M88.94,136.31c8.73-4.11,11.22-3.34,17.86,0s-8.93,13.12-8.93,13.12c0,0-17.65-9.01-8.93-13.12Z"/>
  <circle class="cls-2" cx="123.45" cy="98.93" r="10.17"/>
  <circle class="cls-2" cx="72.83" cy="98.78" r="10.32"/>
  <path d="M70.1,93.84l2.41,4.8-1.21,2.39-3.63-7.19h2.42ZM67.67,96.41l2.42,3.2v5.33h-2.42v-8.53ZM75.68,93.84h2.42l-4.01,7.95h-2.41l4-7.95ZM78.11,96.41v8.53h-2.42v-5.33l2.42-3.2Z"/>
  <path d="M119.89,93.84l2.97,4.8-1.48,2.39-4.47-7.19h2.98ZM116.91,96.41l2.98,3.2v5.33h-2.98v-8.53ZM126.76,93.84h2.98l-4.94,7.95h-2.97l4.92-7.95ZM129.75,96.41v8.53h-2.98v-5.33l2.98-3.2Z"/>
  <path d="M97.3,137.94v3.41h1.64l-.31,2.12h-1.33v3.42h-2.98v-11.09h4.31l.31,2.14h-1.64ZM99.58,137.94l.48-2.14c1.59,0,2.79.53,3.59,1.58.51.68.77,1.43.77,2.27,0,1.12-.41,2.04-1.23,2.77-.79.71-1.83,1.06-3.12,1.06l-.48-2.12c.84,0,1.43-.31,1.77-.94.12-.24.19-.49.19-.77,0-.6-.26-1.07-.78-1.39-.33-.21-.72-.31-1.17-.31Z"/>
  <path d="M69.61,77.07c-6.75-9.96-9.36-10.55-28.71-9.19-22.72,4.85-36.77,31.15-36.77,31.15,0,0,24.88,28.34,32.74,37.28s11.18,0,11.18,0c0,0-1.28-43.15,5.11-46.47s13.02-1.02,16.45-12.77Z"/>
  <path d="M125.35,77.2c6.75-9.96,9.36-10.55,28.71-9.19,22.72,4.85,36.77,31.15,36.77,31.15,0,0-24.88,28.34-32.74,37.28s-11.18,0-11.18,0c0,0,1.28-43.15-5.11-46.47s-13.02-1.02-16.45-12.77Z"/>
  <path class="cls-6" d="M125.35,77.2s-26.78-15.96-55.74-.13"/>
  <path class="cls-7" d="M47.95,130.3s1.12,16.46,15.03,13.29c3.96,8.94,9.19,14.3,18.77,14.3s15.73-5.87,15.73-5.87c0,0,7.63,5.87,14.52,5.87s15.06-1.02,18.26-13.79c12.89,1.28,16.75-13.79,16.75-13.79"/>
  <path class="cls-7" d="M81.75,157.88s14.94,12.26,30.26,0"/>
  <path class="cls-6" d="M62.98,143.58s5.62-6.26,18.77-30-2.44-40.73-2.44-40.73"/>
  <path class="cls-6" d="M130.26,144.09s-5.62-3.95-18.26-30.76,4.67-39.91,4.67-39.91"/>
  <line class="cls-6" x1="80.88" y1="115.51" x2="86.38" y2="136.74"/>
  <line class="cls-6" x1="113.02" y1="115.92" x2="108.91" y2="136.82"/>
  <line class="cls-3" x1="191.94" y1="31.29" x2="191.94" y2="2.95"/>
  <line class="cls-3" x1="191.94" y1="2.95" x2="163.59" y2="2.95"/>
  <line class="cls-3" x1="1.5" y1="166.56" x2="1.5" y2="194.91"/>
  <line class="cls-3" x1="1.5" y1="194.91" x2="29.85" y2="194.91"/>
  <path class="cls-7" d="M80.25,60.31c7.27,8,13.55,0,13.55,0"/>
  <circle class="cls-4" cx="83.34" cy="54.21" r=".71"/>
  <circle class="cls-4" cx="90.93" cy="54.21" r=".71"/>
  <path class="cls-1" d="M105.6,56.65c2.42,10.54,11.81,6.64,11.81,6.64"/>
  <circle class="cls-4" cx="111.28" cy="52.85" r=".71"/>
  <circle class="cls-4" cx="117.89" cy="56.57" r=".71"/>
  <path class="cls-7" d="M93.49,50.49c10.41,2.93,11.49-7.18,11.49-7.18"/>
  <circle class="cls-4" cx="92.88" cy="43.68" r=".71"/>
  <circle class="cls-4" cx="99.32" cy="39.66" r=".71"/>
  <path class="cls-1" d="M71.14,43.22c5.08,9.54,13.13,3.33,13.13,3.33"/>
  <circle class="cls-4" cx="75.64" cy="38.07" r=".71"/>
  <circle class="cls-4" cx="82.99" cy="39.94" r=".71"/>
  <path class="cls-1" d="M124.75,44.99c1.85-10.65-8.32-10.69-8.32-10.69"/>
  <circle class="cls-4" cx="118.04" cy="46.3" r=".71"/>
  <circle class="cls-4" cx="113.38" cy="40.31" r=".71"/>
  <path class="cls-7" d="M83.47,29.85c4.99,9.59,13.1,3.46,13.1,3.46"/>
  <circle class="cls-4" cx="88.01" cy="24.74" r=".71"/>
  <circle class="cls-4" cx="95.35" cy="26.68" r=".71"/>
  <line class="cls-3" x1="185.83" y1="30.8" x2="185.83" y2="8.56"/>
  <line class="cls-3" x1="185.83" y1="8.56" x2="163.59" y2="8.56"/>
  <line class="cls-3" x1="7.61" y1="166.56" x2="7.61" y2="188.8"/>
  <line class="cls-3" x1="7.61" y1="188.8" x2="29.85" y2="188.8"/>
  <line class="cls-3" x1="163.59" y1="194.91" x2="191.94" y2="194.91"/>
  <line class="cls-3" x1="191.94" y1="194.91" x2="191.94" y2="166.56"/>
  <line class="cls-3" x1="163.59" y1="188.8" x2="185.83" y2="188.8"/>
  <line class="cls-3" x1="185.83" y1="188.8" x2="185.83" y2="166.56"/>
  <line class="cls-3" x1="29.85" y1="1.5" x2="1.5" y2="1.5"/>
  <line class="cls-3" x1="1.5" y1="1.5" x2="1.5" y2="29.85"/>
  <line class="cls-3" x1="29.35" y1="7.61" x2="7.12" y2="7.61"/>
  <line class="cls-3" x1="7.12" y1="7.61" x2="7.12" y2="29.85"/>
  <g>
    <rect class="cls-8" x="12.22" y="173.76" width="170.51" height="10.72"/>
    <path d="M15.17,173.76l2.23,3.6-1.11,1.79-3.35-5.39h2.24ZM12.93,175.68l2.24,2.4v4h-2.24v-6.4ZM20.32,173.76h2.24l-3.7,5.96h-2.23l3.69-5.96ZM22.56,175.68v6.4h-2.24v-4l2.24-2.4Z"/>
    <path d="M23.98,173.76h2.24v8.32h-2.24v-8.32Z"/>
    <path d="M29.87,173.76l5.16,8.32h-2.23l-5.17-8.32h2.24ZM27.63,175.68l2.24,2.4v4h-2.24v-6.4ZM35.03,180.15l-2.23-2.4v-4h2.23v6.4Z"/>
    <path d="M38.69,175.36v5.12h1.23l-.23,1.59h-3.23v-8.32h3.23l.23,1.61h-1.23ZM40.4,175.36l.36-1.61c.95,0,1.76.31,2.41.94.66.63.98,1.44.98,2.43v1.59c0,1.13-.42,2.02-1.25,2.66-.62.47-1.33.7-2.14.7l-.36-1.59c.51,0,.91-.22,1.22-.67.2-.32.3-.69.3-1.1v-1.59c0-.66-.23-1.16-.7-1.5-.26-.17-.53-.26-.82-.26Z"/>
    <path d="M45.13,173.76h2.24v8.32h-2.24v-8.32ZM48.39,173.76h3.47v1.61h-4.07l.6-1.61ZM48.33,177.12h2.2v1.59h-2.2v-1.59Z"/>
    <path d="M54.75,173.76v4.96c0,.72.22,1.25.67,1.61.23.18.48.27.74.27l-.35,1.65c-.91,0-1.68-.32-2.31-.95-.65-.66-.97-1.52-.97-2.58v-4.96h2.23ZM60.27,173.76v4.96c0,1.21-.41,2.15-1.23,2.81-.59.48-1.27.71-2.04.71l-.36-1.65c.45,0,.82-.23,1.1-.68.2-.34.3-.74.3-1.2v-4.96h2.23Z"/>
    <path d="M61.48,173.76h2.24v8.32h-2.24v-8.32ZM64.14,180.48h3.82v1.59h-3.22l-.6-1.59Z"/>
    <path d="M71.08,173.76l5.16,8.32h-2.23l-5.17-8.32h2.24ZM68.84,175.68l2.24,2.4v4h-2.24v-6.4ZM76.23,180.15l-2.23-2.4v-4h2.23v6.4Z"/>
    <path d="M77.65,173.76h2.24v8.32h-2.24v-8.32ZM80.91,173.76h3.47v1.61h-4.07l.6-1.61ZM80.31,180.48h4.07v1.59h-3.47l-.6-1.59ZM80.85,177.12h2.2v1.59h-2.2v-1.59Z"/>
    <path d="M86.58,179.72c.27.49.67.78,1.2.86.07,0,.14.01.22.01l-.36,1.65c-1,0-1.84-.31-2.52-.93-.13-.12-.25-.25-.36-.39l1.83-1.21ZM88.48,180.59c.65,0,1.07-.18,1.28-.55.06-.12.09-.23.09-.34,0-.33-.19-.58-.57-.75-.24-.11-.52-.16-.84-.16-1.31,0-2.26-.4-2.85-1.21-.32-.45-.48-.94-.48-1.49,0-.76.28-1.38.83-1.86.5-.42,1.12-.63,1.85-.63l.36,1.65c-.39,0-.64.17-.75.5-.03.09-.05.19-.05.28,0,.37.16.65.47.84.18.11.38.16.61.16,1.42,0,2.46.39,3.13,1.16.37.44.55.93.55,1.46,0,.73-.3,1.35-.91,1.84-.62.49-1.41.74-2.37.74l-.35-1.65ZM90.05,176.11c-.27-.49-.67-.78-1.2-.86-.07,0-.14-.01-.22-.01l.36-1.65c.99,0,1.83.31,2.52.94.13.12.25.25.35.39l-1.82,1.2Z"/>
    <path d="M94.19,179.72c.27.49.67.78,1.2.86.07,0,.14.01.22.01l-.36,1.65c-1,0-1.84-.31-2.52-.93-.13-.12-.25-.25-.36-.39l1.83-1.21ZM96.08,180.59c.65,0,1.07-.18,1.28-.55.06-.12.09-.23.09-.34,0-.33-.19-.58-.57-.75-.24-.11-.52-.16-.84-.16-1.31,0-2.26-.4-2.85-1.21-.32-.45-.48-.94-.48-1.49,0-.76.28-1.38.83-1.86.5-.42,1.12-.63,1.85-.63l.36,1.65c-.39,0-.64.17-.75.5-.03.09-.05.19-.05.28,0,.37.16.65.47.84.18.11.38.16.61.16,1.42,0,2.46.39,3.13,1.16.37.44.55.93.55,1.46,0,.73-.3,1.35-.91,1.84-.62.49-1.41.74-2.37.74l-.35-1.65ZM97.65,176.11c-.27-.49-.67-.78-1.2-.86-.07,0-.14-.01-.22-.01l.36-1.65c.99,0,1.83.31,2.52.94.13.12.25.25.35.39l-1.82,1.2Z"/>
    <path d="M106.88,173.76l2.23,3.6-1.11,1.79-3.35-5.39h2.24ZM104.64,175.68l2.24,2.4v4h-2.24v-6.4ZM112.03,173.76h2.24l-3.7,5.96h-2.23l3.69-5.96ZM114.27,175.68v6.4h-2.24v-4l2.24-2.4Z"/>
    <path d="M119.02,175.24c-.5,0-.9.23-1.21.69-.21.34-.32.74-.32,1.18v1.59c0,.71.23,1.24.7,1.59.25.18.52.27.82.27l-.36,1.66c-.95,0-1.74-.32-2.38-.95-.67-.66-1.01-1.52-1.01-2.58v-1.59c0-1.2.42-2.14,1.25-2.8.62-.49,1.33-.74,2.13-.74l.36,1.66ZM119.5,175.24l.36-1.66c.94,0,1.73.32,2.38.95.68.67,1.02,1.54,1.02,2.59v1.59c0,1.2-.42,2.12-1.25,2.79-.62.49-1.34.74-2.14.74l-.36-1.66c.51,0,.91-.23,1.21-.69.21-.34.32-.73.32-1.17v-1.59c0-.7-.23-1.23-.7-1.59-.26-.19-.53-.28-.82-.28Z"/>
    <path d="M125.31,173.76l.6,1.61h-2.16v-1.61h1.56ZM126.45,173.76h2.23v8.32h-2.23v-8.32ZM129.69,173.76h1.68v1.61h-2.27l.6-1.61Z"/>
    <path d="M132.29,173.76h2.24v8.32h-2.24v-8.32Z"/>
    <path d="M139.29,175.24c-.5,0-.9.23-1.21.69-.21.34-.32.74-.32,1.18v1.59c0,.71.23,1.24.7,1.59.25.18.52.27.82.27l-.36,1.66c-.95,0-1.74-.32-2.38-.95-.67-.66-1.01-1.52-1.01-2.58v-1.59c0-1.2.42-2.14,1.25-2.8.62-.49,1.33-.74,2.13-.74l.36,1.66ZM139.77,175.24l.36-1.66c.94,0,1.73.32,2.38.95.68.67,1.02,1.54,1.02,2.59v1.59c0,1.2-.42,2.12-1.25,2.79-.62.49-1.34.74-2.14.74l-.36-1.66c.51,0,.91-.23,1.21-.69.21-.34.32-.73.32-1.17v-1.59c0-.7-.23-1.23-.7-1.59-.26-.19-.53-.28-.82-.28Z"/>
    <path d="M146.76,173.76l5.16,8.32h-2.23l-5.17-8.32h2.24ZM144.52,175.68l2.24,2.4v4h-2.24v-6.4ZM151.91,180.15l-2.23-2.4v-4h2.23v6.4Z"/>
    <path d="M159.6,175.36v2.55h1.23l-.23,1.59h-1v2.57h-2.24v-8.32h3.23l.23,1.61h-1.23ZM161.31,175.36l.36-1.61c1.2,0,2.09.39,2.7,1.18.38.51.57,1.07.57,1.7,0,.84-.31,1.53-.93,2.07-.59.53-1.38.8-2.34.8l-.36-1.59c.63,0,1.07-.23,1.32-.7.09-.18.14-.37.14-.57,0-.45-.2-.8-.59-1.04-.25-.16-.54-.23-.88-.23Z"/>
    <path d="M165.81,173.76h2.24v8.32h-2.24v-8.32ZM169.07,173.76h3.47v1.61h-4.07l.6-1.61ZM168.47,180.48h4.07v1.59h-3.47l-.6-1.59ZM169.01,177.12h2.2v1.59h-2.2v-1.59Z"/>
    <path d="M174.62,173.76l.6,1.61h-2.16v-1.61h1.56ZM175.76,173.76h2.23v8.32h-2.23v-8.32ZM179.01,173.76h1.68v1.61h-2.27l.6-1.61Z"/>
  </g>
</svg>